<!DOCTYPE svg PUBLIC "-//W3C//DTD SVG 1.1//EN" "http://www.w3.org/Graphics/SVG/1.1/DTD/svg11.dtd">
<!-- Uploaded to: SVG Repo, www.svgrepo.com, Transformed by: SVG Repo Mixer Tools -->
<svg height="800px" width="800px" version="1.1" id="Layer_1" xmlns="http://www.w3.org/2000/svg" xmlns:xlink="http://www.w3.org/1999/xlink" viewBox="0 0 512 512" xml:space="preserve" fill="#000000">
<g id="SVGRepo_bgCarrier" stroke-width="0"/>
<g id="SVGRepo_tracerCarrier" stroke-linecap="round" stroke-linejoin="round"/>
<g id="SVGRepo_iconCarrier"> <path style="fill:#16a34a;" d="M0,256.006C0,397.402,114.606,512.004,255.996,512C397.394,512.004,512,397.402,512,256.006 C512.009,114.61,397.394,0,255.996,0C114.606,0,0,114.614,0,256.006z"/> <path style="fill:#15803d;" d="M501.591,328.266C501.42,328.1,291.746,118.433,291.254,117.93 c-8.564-9.554-20.476-15.53-33.674-15.53c-25.994,0-47.143,23.038-47.143,51.356c0,1.169,0.037,2.356,0.118,3.557 c-22.313,6.556-37.945,27.299-37.945,51.443c0,9.964,2.651,19.494,7.713,27.888C167.506,248.443,160,265.38,160,283.062 c0,17.7,7.284,33.675,18.914,45.062c0.485,0.508,57.435,57.453,57.886,57.898V396.8H224c-3.538,0-6.4,2.862-6.4,6.401 c0,2.155,1.132,3.966,2.762,5.125c0.417,0.585,94.657,94.826,95.243,95.243c0.315,0.442,0.719,0.783,1.125,1.125 C405.441,483.107,476.013,415.341,501.591,328.266z"/> <path style="fill:#F4F6F9;" d="M290.675,345.6c33.812,0,61.325-28.057,61.325-62.538c0-17.375-6.938-33.606-19.219-45.401 c5.394-8.588,8.313-18.65,8.313-28.907c0-23.406-15.044-43.987-36.518-51.038c0.094-1.325,0.144-2.65,0.144-3.963 c0-28.319-21.143-51.356-47.137-51.356s-47.143,23.038-47.143,51.356c0,1.169,0.037,2.356,0.118,3.556 c-22.313,6.556-37.943,27.3-37.943,51.444c0,9.963,2.65,19.493,7.712,27.888C167.506,248.444,160,265.381,160,283.062 c0,34.481,27.513,62.538,61.325,62.538c5.251,0,10.445-0.736,15.475-2.079V396.8H224c-3.537,0-6.4,2.863-6.4,6.4s2.863,6.4,6.4,6.4 h19.2c3.537,0,6.4-2.863,6.4-6.4v-64c0-0.226-0.106-0.417-0.128-0.637c2.244-1.182,4.436-2.471,6.528-3.932 c2.092,1.461,4.285,2.75,6.528,3.932c-0.021,0.22-0.128,0.411-0.128,0.637v64c0,3.537,2.863,6.4,6.4,6.4H288 c3.537,0,6.4-2.863,6.4-6.4s-2.863-6.4-6.4-6.4h-12.8v-53.279C280.229,344.864,285.424,345.6,290.675,345.6z M256,320.181 c-1.456,0-2.912,0.494-4.1,1.482c-8.612,7.181-19.475,11.137-30.575,11.137c-26.756,0-48.525-22.313-48.525-49.738 c0-15.744,7.45-30.737,19.925-40.107c1.369-1.025,2.269-2.556,2.5-4.25s-0.225-3.412-1.268-4.769 c-5.587-7.275-8.544-15.987-8.544-25.181c0-19.987,13.987-36.9,33.257-40.212c1.675-0.288,3.169-1.225,4.15-2.612 c0.975-1.388,1.362-3.113,1.075-4.781c-0.444-2.562-0.656-4.975-0.656-7.394c0-21.263,15.406-38.556,34.343-38.556 c18.931,0,34.337,17.294,34.337,38.556c0,2.507-0.225,5.056-0.675,7.587c-0.606,3.419,1.619,6.693,5.019,7.388 c18.556,3.801,32.031,20.631,32.031,40.025c0,9.431-3.219,18.631-9.069,25.913c-1.069,1.325-1.563,3.031-1.375,4.725 c0.194,1.694,1.056,3.244,2.394,4.3c12.049,9.519,18.956,23.869,18.956,39.369c0,27.425-21.769,49.738-48.525,49.738 c-11.1,0-21.963-3.956-30.575-11.137C258.912,320.675,257.456,320.181,256,320.181z"/> </g>
</svg>